<?xml version="1.0" encoding="UTF-8" standalone="no"?>
<svg
   xmlns:dc="http://purl.org/dc/elements/1.1/"
   xmlns:cc="http://creativecommons.org/ns#"
   xmlns:rdf="http://www.w3.org/1999/02/22-rdf-syntax-ns#"
   xmlns:svg="http://www.w3.org/2000/svg"
   xmlns="http://www.w3.org/2000/svg"
   xmlns:sodipodi="http://sodipodi.sourceforge.net/DTD/sodipodi-0.dtd"
   xmlns:inkscape="http://www.inkscape.org/namespaces/inkscape"
   id="Layer_1"
   data-name="Layer 1"
   viewBox="0 0 70 70"
   version="1.1"
   sodipodi:docname="logo.svg"
   width="70"
   height="70"
   inkscape:version="1.0.2-2 (e86c870879, 2021-01-15)">
  <metadata
     id="metadata19">
    <rdf:RDF>
      <cc:Work
         rdf:about="">
        <dc:format>image/svg+xml</dc:format>
        <dc:type
           rdf:resource="http://purl.org/dc/dcmitype/StillImage" />
        <dc:title>Artboard 46</dc:title>
      </cc:Work>
    </rdf:RDF>
  </metadata>
  <sodipodi:namedview
     pagecolor="#ffffff"
     bordercolor="#666666"
     borderopacity="1"
     objecttolerance="10"
     gridtolerance="10"
     guidetolerance="10"
     inkscape:pageopacity="0"
     inkscape:pageshadow="2"
     inkscape:window-width="1280"
     inkscape:window-height="961"
     id="namedview17"
     showgrid="false"
     fit-margin-top="0"
     fit-margin-left="0"
     fit-margin-right="0"
     fit-margin-bottom="0"
     inkscape:zoom="5.6144278"
     inkscape:cx="12.095153"
     inkscape:cy="16.755772"
     inkscape:window-x="1358"
     inkscape:window-y="-8"
     inkscape:window-maximized="1"
     inkscape:current-layer="Layer_1" />
  <defs
     id="defs4">
    <style
       id="style2">.cls-1{fill:#1697f6;}.cls-2{fill:#7bc6ff;}.cls-3{fill:#1867c0;}.cls-4{fill:#aeddff;}</style>
  </defs>
  <title
     id="title6">Artboard 46</title>
  <polyline
     class="cls-1"
     points="43.75 0 23.31 0 43.75 48.32"
     id="polyline8"
     transform="matrix(0.58972212,0,0,0.25149824,9.081013,35.28583)"
     style="fill:#0a8bea;fill-opacity:1" />
  <polygon
     class="cls-2"
     points="43.75,100 0,14.58 22.92,14.58 43.75,62.5 "
     id="polygon10"
     transform="matrix(0.58036668,0,0,0.25351707,9.525431,31.608683)"
     style="fill:#8bcdff;fill-opacity:1" />
  <polyline
     class="cls-3"
     points="43.75 0 64.19 0 43.75 48.32"
     id="polyline12"
     transform="matrix(0.58972212,0,0,0.25149824,9.081013,35.28583)" />
  <polygon
     class="cls-4"
     points="43.75,62.5 64.58,14.58 87.5,14.58 43.75,100 "
     id="polygon14"
     transform="matrix(0.58036668,0,0,0.25351707,9.490313,31.593408)" />
  <polyline
     class="cls-1"
     points="43.75 0 23.31 0 43.75 48.32"
     id="polyline8-9"
     transform="matrix(0.58972212,0,0,-0.25149824,9.081013,35.483075)"
     style="fill:#1697f6" />
  <polyline
     class="cls-3"
     points="43.75 0 64.19 0 43.75 48.32"
     id="polyline12-0"
     transform="matrix(0.58972212,0,0,-0.25149824,9.081013,35.483075)"
     style="fill:#3c8ce6;fill-opacity:1" />
  <polygon
     class="cls-2"
     points="0,14.58 22.92,14.58 43.75,62.5 43.75,100 "
     id="polygon10-7"
     transform="matrix(0.58036668,0,0,-0.25292639,9.560549,39.155502)"
     style="fill:#50b2ff;fill-opacity:1" />
  <polygon
     class="cls-4"
     points="64.58,14.58 87.5,14.58 43.75,100 43.75,62.5 "
     id="polygon14-8"
     transform="matrix(0.58036668,0,0,-0.25292639,9.525431,39.170741)"
     style="fill:#7ac6ff;fill-opacity:1" />
  <polygon
     class="cls-2"
     points="22.92,14.58 43.75,62.5 43.75,100 0,14.58 "
     id="polygon10-7-1"
     transform="matrix(-0.8,0,0,-0.41209555,70,41.387668)"
     style="fill:#cccccc" />
  <polygon
     class="cls-4"
     points="87.5,14.58 43.75,100 43.75,62.5 64.58,14.58 "
     id="polygon14-8-2"
     transform="matrix(-0.8,0,0,-0.41209555,70.048409,41.412497)"
     style="fill:#e6e6e6" />
  <polygon
     class="cls-2"
     points="0,14.58 22.92,14.58 43.75,62.5 43.75,100 "
     id="polygon10-7-1-2"
     transform="matrix(-0.8,0,0,0.40709753,69.951592,29.290248)"
     style="fill:#999999" />
  <polygon
     class="cls-4"
     points="64.58,14.58 87.5,14.58 43.75,100 43.75,62.5 "
     id="polygon14-8-2-6"
     transform="matrix(-0.8,0,0,0.40709753,70,29.26572)"
     style="fill:#b3b3b3" />
</svg>
